<svg xmlns="http://www.w3.org/2000/svg" viewBox="0 0 100 100" enable-background="new 0 0 100 100"><path fill="#7db900" d="m84.6 53.1h-6.3c-1.7 0-3.1-1.4-3.1-3.1s1.4-3.1 3.1-3.1h6.3c1.7 0 3.1 1.4 3.1 3.1s-1.4 3.1-3.1 3.1m-12.4-20.9c-1.2 1.2-3.2 1.2-4.4 0-1.2-1.2-1.2-3.2 0-4.4l4.4-4.4c1.2-1.2 3.2-1.2 4.4 0 1.2 1.2 1.2 3.2 0 4.4l-4.4 4.4m-22.2 36.7c-10.4 0-18.9-8.5-18.9-18.9 0-10.4 8.5-18.9 18.9-18.9 10.4 0 18.9 8.5 18.9 18.9 0 10.4-8.5 18.9-18.9 18.9m0-31.5c-6.9 0-12.6 5.6-12.6 12.6 0 6.9 5.6 12.6 12.6 12.6s12.6-5.7 12.6-12.6c0-6.9-5.6-12.6-12.6-12.6m0-12.6c-1.7 0-3.1-1.4-3.1-3.1v-6.3c0-1.7 1.4-3.1 3.1-3.1 1.7 0 3.1 1.4 3.1 3.1v6.3c0 1.7-1.4 3.1-3.1 3.1m-22.2 7.4l-4.4-4.4c-1.2-1.2-1.2-3.2 0-4.4s3.2-1.2 4.4 0l4.4 4.4c1.2 1.2 1.2 3.2 0 4.4s-3.2 1.2-4.4 0m-3 17.8c0 1.7-1.4 3.1-3.1 3.1h-6.3c-1.7 0-3.1-1.4-3.1-3.1s1.4-3.1 3.1-3.1h6.3c1.7 0 3.1 1.4 3.1 3.1m3 17.8c1.2-1.2 3.2-1.2 4.4 0 1.2 1.2 1.2 3.2 0 4.4l-4.4 4.4c-1.2 1.2-3.2 1.2-4.4 0-1.2-1.2-1.2-3.2 0-4.4l4.4-4.4m22.2 7.4c1.7 0 3.1 1.4 3.1 3.1v6.3c0 1.7-1.4 3.1-3.1 3.1-1.7 0-3.1-1.4-3.1-3.1v-6.3c0-1.7 1.4-3.1 3.1-3.1m22.2-7.4l4.4 4.4c1.2 1.2 1.2 3.2 0 4.4-1.2 1.2-3.2 1.2-4.4 0l-4.4-4.4c-1.2-1.2-1.2-3.2 0-4.4 1.2-1.2 3.2-1.2 4.4 0"></path></svg>