<svg xmlns="http://www.w3.org/2000/svg" viewBox="0 0 100 100" enable-background="new 0 0 100 100"><path fill="#7db900" d="m40.5 75.5c-14.1 0-25.5-11.4-25.5-25.5s11.4-25.5 25.5-25.5c9.6 0 17.9 5.3 22.2 13.1 1.1-.2 2.1-.3 3.2-.3 10.5 0 19.1 8.5 19.1 19.1 0 10.5-8.5 19.1-19.1 19.1-4.4 0-20.4 0-25.4 0"></path><path fill="#7db900" d="m65.9 69.1c7 0 12.7-5.7 12.7-12.7 0-7-5.7-12.7-12.7-12.7-2.5 0-4.9.8-6.9 2.1-2-8.5-9.5-14.8-18.6-14.8-10.5 0-19.1 8.5-19.1 19.1 0 10.5 8.5 19.1 19.1 19.1 5.8-.1 20.7-.1 25.5-.1"></path></svg>